<?xml version="1.0" standalone="no"?>
<!DOCTYPE svg PUBLIC "-//W3C//DTD SVG 20010904//EN"
 "http://www.w3.org/TR/2001/REC-SVG-20010904/DTD/svg10.dtd">
<svg version="1.0" xmlns="http://www.w3.org/2000/svg"
 width="870.000000pt" height="870.000000pt" viewBox="0 0 870.000000 870.000000"
 preserveAspectRatio="xMidYMid meet">
<metadata>
Created by potrace 1.14, written by Peter Selinger 2001-2017
</metadata>
<g transform="translate(0.000000,870.000000) scale(0.100000,-0.100000)"
fill="#000000" stroke="none">
<path d="M3468 7115 c-2 -1 -34 -5 -73 -8 -94 -6 -192 -32 -295 -76 -101 -43
-388 -214 -515 -305 -49 -36 -101 -71 -115 -79 -14 -7 -53 -27 -88 -45 l-63
-33 25 -42 c13 -23 62 -107 108 -187 47 -80 96 -165 110 -190 60 -107 99 -170
106 -170 4 1 34 26 67 57 141 130 356 280 547 381 100 52 105 82 39 199 l-50
86 32 17 c18 10 142 81 275 159 134 77 247 141 252 141 4 0 13 6 19 14 9 11
-2 17 -56 34 -75 22 -103 29 -154 37 -43 6 -167 14 -171 10z"/>
<path d="M5108 7115 c-2 -1 -31 -5 -65 -8 -99 -10 -259 -56 -237 -70 5 -2 25
-14 44 -24 19 -11 54 -31 76 -44 23 -13 135 -77 248 -143 113 -65 206 -123
206 -129 0 -6 -18 -41 -39 -77 -71 -119 -66 -144 46 -206 75 -41 268 -160 293
-180 8 -7 49 -38 90 -69 41 -31 106 -84 144 -118 38 -34 72 -63 77 -65 7 -3
51 66 104 163 12 22 71 123 130 225 59 102 109 188 112 192 2 4 -20 19 -49 34
-82 41 -167 93 -233 143 -150 115 -497 305 -605 333 -59 15 -154 35 -170 36
-8 0 -50 3 -92 5 -43 2 -79 3 -80 2z"/>
<path d="M2231 6533 c-19 -10 -96 -40 -170 -68 -123 -46 -136 -53 -137 -75 -1
-46 65 -212 128 -324 71 -124 187 -252 294 -324 l62 -41 58 66 c33 37 80 89
107 116 26 28 47 54 47 58 0 4 -15 34 -34 66 -19 32 -47 81 -62 109 -84 151
-250 433 -254 433 -3 0 -20 -7 -39 -16z"/>
<path d="M6350 6487 c-19 -34 -46 -82 -60 -107 -14 -25 -38 -64 -53 -87 -15
-24 -27 -45 -27 -47 0 -2 -20 -39 -45 -80 -25 -42 -45 -78 -45 -80 0 -2 -20
-36 -44 -75 l-43 -71 51 -53 c28 -29 77 -83 110 -120 l58 -66 62 41 c106 71
223 200 293 323 67 119 120 249 125 311 l3 38 -110 42 c-60 22 -139 52 -175
66 l-66 25 -34 -60z"/>
<path d="M3237 6345 c-126 -72 -287 -179 -287 -192 0 -38 208 -456 301 -605
81 -129 241 -370 266 -401 13 -16 23 -33 23 -38 0 -5 -133 -9 -326 -9 l-326 0
7 53 c3 28 15 89 26 135 19 78 19 122 -2 122 -5 0 -18 20 -30 45 -12 25 -25
45 -30 45 -5 0 -9 8 -9 19 0 23 -21 42 -52 46 -13 2 -59 13 -102 24 -145 39
-160 31 -189 -94 -8 -38 -27 -119 -41 -180 -14 -60 -28 -126 -31 -145 -3 -19
-8 -43 -11 -52 -5 -17 -71 -18 -1118 -20 -1029 -3 -1114 -4 -1129 -20 -23 -23
-32 -71 -17 -98 25 -47 8 -47 1152 -46 l1077 1 -6 -30 c-3 -16 -16 -61 -29
-100 -13 -38 -24 -81 -24 -95 0 -14 -7 -43 -14 -65 -8 -22 -16 -56 -19 -75 -3
-19 -10 -48 -17 -65 -21 -54 -97 -336 -146 -540 l-47 -200 -945 0 -944 0 -24
-28 c-30 -35 -31 -76 -3 -108 l21 -24 927 -3 928 -2 -22 -93 c-19 -81 -20
-100 -10 -140 18 -71 61 -111 118 -109 21 0 26 -3 19 -11 -5 -7 -10 -23 -10
-37 -1 -33 -80 -343 -90 -350 -4 -3 -19 -51 -34 -107 -34 -133 -31 -138 80
-136 116 1 127 5 141 55 7 24 13 50 14 58 10 62 43 190 49 190 5 0 8 -4 8 -10
0 -23 54 -43 127 -47 64 -4 80 -1 102 15 l26 19 -1 -126 c-2 -198 30 -268 110
-241 40 13 58 31 61 63 1 12 3 26 4 30 0 5 13 -5 27 -22 14 -17 34 -31 44 -31
10 0 22 -4 25 -10 12 -19 71 -11 92 13 11 12 41 75 66 141 l44 119 81 26 81
27 21 -67 c11 -37 20 -74 20 -82 0 -8 -51 -119 -114 -248 -62 -129 -128 -265
-146 -304 -115 -247 -114 -245 -111 -290 4 -65 78 -101 188 -92 71 7 113 27
136 66 9 15 28 85 42 156 14 72 28 138 30 147 2 10 20 66 40 124 33 96 52 144
102 251 l15 32 68 -4 c76 -5 95 6 104 60 3 17 15 73 27 125 12 52 26 117 32
143 l10 49 12 -29 c6 -15 19 -59 29 -98 10 -38 28 -90 41 -115 13 -25 26 -57
29 -71 13 -62 173 -75 192 -16 4 12 8 37 9 57 2 19 6 53 9 75 3 22 8 60 11 85
3 25 7 56 10 69 4 24 18 156 18 179 0 8 11 19 24 25 13 5 23 13 23 17 0 4 12
10 28 13 56 11 85 22 144 52 53 28 53 33 0 -75 -18 -36 -32 -70 -32 -77 0 -7
-16 -29 -35 -50 -29 -31 -35 -44 -30 -67 3 -20 -4 -48 -24 -91 -30 -63 -71
-179 -71 -200 0 -29 90 -85 138 -85 42 0 64 31 116 165 l47 120 79 25 79 26
26 -83 c21 -68 32 -87 61 -110 31 -23 39 -25 65 -16 23 9 29 9 29 -3 0 -22 58
-72 105 -90 32 -12 65 -15 127 -12 76 4 88 7 138 41 30 20 66 46 78 57 13 11
28 20 33 20 27 0 203 -410 224 -522 3 -11 6 -27 9 -36 3 -9 8 -31 10 -48 32
-186 53 -240 106 -265 32 -15 162 -21 199 -8 16 6 39 21 51 34 32 34 23 97
-30 210 -23 50 -51 110 -62 135 -11 24 -60 127 -109 227 -77 161 -86 184 -71
192 9 5 20 10 24 10 18 3 78 35 78 42 0 5 16 11 35 15 19 3 35 9 35 13 0 4 15
15 33 26 32 19 48 31 70 51 8 8 19 4 39 -17 27 -26 28 -30 22 -106 -5 -70 -4
-80 14 -97 18 -16 25 -16 59 -5 68 24 90 45 104 101 7 29 13 56 14 60 0 3 2 9
6 12 7 7 163 7 214 0 22 -3 56 -7 75 -9 55 -4 229 -71 277 -106 38 -27 48 -30
69 -20 26 11 31 41 15 83 -31 82 -251 199 -421 224 -25 3 -65 9 -90 13 l-45 6
38 23 c21 12 44 22 50 22 7 0 50 25 97 56 163 108 205 176 180 291 -17 74 -52
119 -119 149 l-60 28 67 63 67 63 1026 0 1026 0 27 26 c33 34 34 74 2 111
l-24 28 -976 0 c-537 0 -976 1 -976 2 0 1 7 9 16 17 8 9 15 24 15 33 -1 35 -1
49 3 114 15 230 -137 456 -416 620 -32 18 -59 40 -59 49 -1 8 -2 78 -3 155
l-1 140 -45 0 -45 0 -1 -124 c0 -83 -4 -126 -11 -128 -7 -3 -24 2 -40 10 -16
8 -73 31 -128 50 -55 20 -127 46 -160 58 -33 12 -74 27 -92 33 -17 7 -29 16
-25 22 12 18 96 81 132 100 33 17 98 18 1410 20 756 1 1381 2 1388 3 7 0 24
12 37 26 31 30 32 73 4 106 l-21 24 -991 5 c-546 3 -982 6 -971 8 41 4 68 36
71 83 5 104 -14 141 -116 229 -19 17 -46 30 -59 30 -13 0 -37 11 -54 25 -16
14 -37 25 -46 26 -9 0 -26 2 -37 5 -27 5 -162 5 -203 0 -60 -9 -246 -56 -342
-87 -83 -27 -266 -111 -280 -129 -3 -4 -12 -10 -20 -13 -8 -4 -33 -18 -55 -32
-22 -13 -63 -36 -91 -50 -28 -14 -66 -41 -84 -60 -27 -28 -42 -35 -72 -35 -21
0 -38 2 -38 5 0 2 53 84 118 182 166 249 215 329 289 470 86 164 185 384 179
399 -5 14 -162 119 -278 187 l-78 46 -18 -27 c-38 -53 -71 -130 -123 -287 -29
-88 -54 -162 -55 -165 0 -3 -3 -12 -7 -20 -3 -8 -22 -61 -42 -118 -20 -56 -56
-151 -81 -210 -25 -59 -50 -119 -56 -134 -12 -34 -20 -35 -52 -3 -15 15 -36
25 -54 25 -16 0 -37 9 -46 19 -51 56 -235 56 -461 0 -216 -55 -317 -96 -480
-194 -42 -26 -78 -45 -79 -43 -2 1 -22 37 -44 78 -81 148 -169 369 -296 745
-41 123 -89 245 -109 277 l-34 57 -76 -44z m1571 -1199 c2 -3 -1 -14 -8 -25
-10 -19 -20 -21 -95 -21 -83 0 -92 3 -77 27 14 21 162 37 180 19z m1647 -16
c22 -10 47 -20 55 -23 8 -3 -61 -6 -155 -6 l-169 -1 20 20 c39 40 171 45 249
10z m-2928 -243 c1 -27 6 -62 12 -79 6 -17 11 -45 11 -63 0 -21 12 -47 33 -76
19 -24 41 -58 50 -76 9 -17 25 -34 35 -38 11 -3 36 -23 56 -45 21 -22 57 -50
82 -61 24 -12 44 -25 44 -30 0 -5 6 -9 14 -9 8 0 16 -3 18 -7 2 -5 17 -16 33
-25 l30 -17 3 -170 2 -171 -23 11 c-25 11 -77 -3 -77 -21 0 -5 -8 -10 -18 -10
-10 0 -29 -17 -42 -39 -25 -39 -35 -43 -74 -26 -14 6 -24 2 -39 -16 -13 -16
-21 -20 -24 -11 -3 7 -22 12 -44 12 -31 0 -46 -6 -65 -27 -19 -20 -27 -24 -33
-15 -4 7 -32 15 -62 18 -30 3 -64 7 -75 9 l-21 5 -1 462 c-1 255 -1 478 -1
496 -1 31 -2 32 -46 32 l-45 0 0 -499 c0 -557 8 -500 -70 -517 -19 -4 -39 -9
-45 -10 -5 -1 -53 -9 -105 -19 -123 -21 -205 -42 -257 -66 -32 -14 -71 -20
-157 -23 -128 -3 -125 -6 -107 64 5 19 17 71 28 115 l18 80 5 -110 5 -110 43
-1 c25 -1 42 3 43 10 1 6 2 128 3 271 2 217 5 270 20 318 10 33 19 70 21 83 1
13 7 29 12 36 6 7 14 31 17 52 4 21 14 50 23 63 9 13 13 26 10 29 -3 3 4 22
15 42 11 20 21 52 22 72 2 19 10 51 19 70 9 19 18 46 21 60 l5 26 338 -1 338
0 2 -48z m1153 44 c3 -1 -5 -10 -16 -19 -12 -10 -25 -29 -29 -42 -6 -20 -131
-214 -156 -244 -4 -4 -58 12 -121 37 -62 24 -148 57 -191 72 -64 23 -83 35
-103 64 -39 58 -29 82 52 118 36 16 69 18 300 17 142 -1 261 -2 264 -3z m421
0 c3 -1 6 -24 8 -53 1 -28 5 -57 9 -62 4 -6 7 -31 8 -55 1 -27 10 -53 23 -70
12 -14 35 -50 52 -79 18 -30 41 -57 53 -62 12 -4 32 -20 46 -35 l25 -26 0
-280 c1 -154 -3 -283 -7 -285 -4 -3 -8 0 -8 5 0 19 -38 12 -53 -10 -9 -13 -17
-16 -22 -10 -3 6 -23 11 -43 11 -30 0 -46 -8 -76 -37 -21 -20 -45 -38 -54 -40
-10 -1 -25 -12 -34 -24 -22 -26 -20 -34 -22 109 -4 198 -55 315 -202 459 -106
103 -106 102 45 324 163 239 152 227 203 224 24 -2 46 -4 49 -4z m351 -524
c11 -11 123 -70 138 -73 3 0 14 -4 25 -8 57 -22 201 -58 219 -56 5 1 12 -2 15
-7 3 -5 42 -25 86 -44 l79 -35 -1 -110 c-1 -60 -2 -120 -2 -134 -1 -20 -23
-39 -113 -100 l-111 -74 -149 -1 c-144 -1 -173 4 -149 28 17 17 13 56 -8 68
-11 7 -16 19 -13 31 5 21 13 23 29 7 19 -19 57 -6 68 25 8 24 6 31 -13 46 -12
10 -22 25 -22 34 0 37 -79 43 -100 7 -5 -9 -10 -11 -10 -6 -2 12 -2 384 -1
403 1 16 16 15 33 -1z m-1376 -95 c5 -4 29 -33 52 -65 l41 -59 -56 -86 c-30
-48 -59 -91 -64 -97 -5 -5 -9 57 -9 153 0 163 3 177 36 154z m2066 -218 c-2
-11 -11 -27 -20 -36 -16 -16 -17 -14 -17 32 0 47 1 49 20 36 11 -8 19 -22 17
-32z m-1585 25 c6 -6 9 -18 6 -26 -4 -11 -8 -10 -19 4 -22 30 -12 47 13 22z
m-199 -205 l22 -32 -82 -56 c-45 -31 -83 -54 -86 -52 -4 5 44 78 91 139 16 21
30 37 31 35 2 -2 12 -17 24 -34z m-425 -20 c21 -8 21 -30 2 -64 -13 -24 -14
-24 -15 -4 0 12 -7 27 -15 34 -18 15 -20 54 -2 46 6 -3 20 -9 30 -12z m977
-304 c0 -5 -4 -10 -9 -10 -6 0 -13 5 -16 10 -3 6 1 10 9 10 9 0 16 -4 16 -10z
m540 5 c0 -2 -14 -12 -30 -20 -30 -16 -30 -15 -18 5 11 17 48 29 48 15z
m-2170 -70 c-15 -18 -7 -109 12 -133 7 -9 -3 -4 -22 11 -48 38 -98 59 -122 51
-28 -9 -72 -55 -89 -93 -8 -17 -17 -31 -21 -31 -5 0 -8 -7 -8 -15 0 -8 -4 -15
-10 -15 -5 0 -10 -5 -10 -11 0 -6 -22 -54 -48 -107 -27 -53 -55 -113 -62 -132
-8 -19 -27 -48 -43 -64 -23 -23 -28 -35 -23 -58 4 -19 -3 -47 -20 -86 -14 -31
-36 -86 -49 -121 -12 -35 -25 -59 -29 -53 -5 9 -2 120 10 367 4 66 7 166 8
222 l1 101 45 24 c25 12 60 35 78 49 27 22 41 26 75 22 33 -4 47 0 66 16 13
12 36 20 50 20 14 -1 49 5 76 14 64 21 116 35 134 36 11 1 11 -2 1 -14z m1474
-185 c42 -60 76 -113 76 -117 0 -4 -10 -19 -21 -33 -35 -43 -89 -130 -89 -143
0 -6 -5 -4 -11 6 -5 9 -21 17 -34 17 -13 0 -27 5 -31 12 -4 7 -10 59 -12 117
-2 58 -10 125 -17 149 -12 39 -12 44 6 55 10 6 19 20 19 29 0 11 8 18 19 18
13 0 43 -34 95 -110z m-1401 -42 c3 -10 21 -25 41 -33 40 -17 96 -68 96 -88 0
-14 -65 -127 -81 -140 -5 -4 -7 -4 -4 -1 9 13 -17 34 -41 34 -32 0 -35 9 -40
108 -2 48 -6 104 -9 125 -5 35 -4 37 14 25 11 -7 22 -20 24 -30z m2887 -2
c110 -9 114 -21 30 -88 -39 -31 -169 -108 -183 -108 -3 0 -4 12 -2 28 2 24 5
45 20 127 2 11 4 25 4 32 1 11 43 21 66 16 6 -1 35 -4 65 -7z m-337 -175 c-12
-69 -22 -127 -23 -127 0 -1 -17 -9 -38 -17 -21 -9 -52 -27 -69 -41 -16 -14
-52 -30 -79 -37 -27 -7 -84 -27 -126 -45 -56 -23 -78 -28 -78 -19 0 8 4 16 9
19 5 3 12 22 16 42 6 34 7 35 25 19 17 -15 22 -15 76 0 65 18 122 45 171 82
26 19 32 30 31 57 -1 18 2 38 6 44 10 17 -22 41 -65 48 l-40 7 50 17 c27 10
69 31 92 47 23 16 47 30 53 30 8 0 4 -41 -11 -126z m-561 -35 c15 -7 15 -11 1
-51 l-15 -44 -21 19 c-11 11 -24 20 -28 20 -3 0 -5 10 -4 23 1 12 3 27 4 34 1
12 33 11 63 -1z m-2192 -11 c0 -8 -4 -15 -10 -15 -5 0 -7 7 -4 15 4 8 8 15 10
15 2 0 4 -7 4 -15z m1310 0 c0 -8 -4 -15 -10 -15 -5 0 -7 7 -4 15 4 8 8 15 10
15 2 0 4 -7 4 -15z m526 -97 c-6 -4 -20 -8 -31 -8 -32 0 -45 -14 -51 -52 -6
-34 -4 -37 38 -62 25 -14 54 -26 66 -26 12 0 22 -4 22 -8 0 -15 -85 -91 -113
-101 -41 -16 -43 -15 -62 25 -14 30 -15 43 -6 82 6 26 13 56 15 67 3 22 54
133 69 152 7 10 16 3 37 -25 18 -25 23 -39 16 -44z m-1606 1 c-7 -11 -14 -18
-17 -15 -3 3 0 12 7 21 18 21 23 19 10 -6z m1307 -10 c-8 -21 -13 -26 -15 -15
-2 10 2 23 8 31 18 22 20 18 7 -16z"/>
<path d="M509 4838 c0 -35 -1 -281 -1 -548 l0 -485 43 0 44 0 3 548 2 547 -45
0 -45 0 -1 -62z"/>
<path d="M1198 4893 c-2 -5 -3 -251 -3 -548 l1 -540 47 -2 47 -2 0 550 0 549
-44 0 c-25 0 -46 -3 -48 -7z"/>
<path d="M1885 4353 l0 -548 45 0 45 0 0 545 0 545 -45 3 -46 3 1 -548z"/>
<path d="M6704 4353 l1 -548 43 -2 c37 -3 42 0 43 20 3 66 4 1054 1 1065 -3 7
-21 12 -47 12 l-43 0 2 -547z"/>
<path d="M7390 4351 l0 -550 40 1 c27 0 43 6 48 17 5 12 8 960 3 1064 -1 13
-10 17 -46 17 l-45 0 0 -549z"/>
<path d="M8080 4583 c-1 -580 0 -765 5 -773 3 -4 23 -8 45 -8 l40 -1 0 550 0
549 -45 0 -45 0 0 -317z"/>
</g>
</svg>
