<?xml version="1.0" encoding="utf-8"?>
<!-- https://www.leitstellenspiel.de/images/icons8-chat.svg -->
<svg xmlns="http://www.w3.org/2000/svg" viewBox="0 0 32 32" width="50px" height="50px" fill="#323232"><path style="text-indent:0;text-align:start;line-height:normal;text-transform:none;block-progression:tb;-inkscape-font-specification:Bitstream Vera Sans" d="M 2 5 L 2 6 L 2 20 L 2 21 L 3 21 L 6 21 L 6 24 L 6 26.09375 L 7.625 24.78125 L 12.34375 21 L 21 21 L 22 21 L 22 20 L 22 6 L 22 5 L 21 5 L 3 5 L 2 5 z M 4 7 L 20 7 L 20 19 L 12 19 L 11.65625 19 L 11.375 19.21875 L 8 21.90625 L 8 20 L 8 19 L 7 19 L 4 19 L 4 7 z M 24 9 L 24 11 L 28 11 L 28 23 L 24 23 L 24 25.90625 L 20.34375 23 L 12.84375 23 L 10.34375 25 L 19.65625 25 L 26 30.09375 L 26 25 L 30 25 L 30 9 L 24 9 z" color="#000" overflow="visible" font-family="Bitstream Vera Sans" fill="#323232"/></svg>
