<?xml version="1.0" encoding="utf-8"?>
<!-- https://www.leitstellenspiel.de/images/google_news_ffffff.svg -->
<svg xmlns="http://www.w3.org/2000/svg" viewBox="0 0 50 50" width="50px" height="50px" enable-background="new 0 0 50 50" fill="#ffffff"><path style="text-indent:0;text-align:start;line-height:normal;text-transform:none;block-progression:tb;-inkscape-font-specification:Bitstream Vera Sans" d="M 2.875 3 A 1.0001 1.0001 0 0 0 2 4 L 2 45 C 2 46.645455 3.3545455 48 5 48 L 35 48 A 1.0001 1.0001 0 0 0 35.71875 47.71875 L 47.71875 35.71875 A 1.0001 1.0001 0 0 0 48 35 L 48 4 A 1.0001 1.0001 0 0 0 46.28125 3.3125 L 44.09375 5.5625 L 41.8125 3.28125 A 1.0001 1.0001 0 0 0 40.5 3.1875 L 37 5.75 L 33.59375 3.1875 A 1.0001 1.0001 0 0 0 32.40625 3.1875 L 29 5.75 L 25.59375 3.1875 A 1.0001 1.0001 0 0 0 24.40625 3.1875 L 21 5.75 L 17.59375 3.1875 A 1.0001 1.0001 0 0 0 16.40625 3.1875 L 13 5.75 L 9.59375 3.1875 A 1.0001 1.0001 0 0 0 8.28125 3.28125 L 6 5.5625 L 3.71875 3.28125 A 1.0001 1.0001 0 0 0 2.875 3 z M 17 5.25 L 20.40625 7.8125 A 1.0001 1.0001 0 0 0 21.59375 7.8125 L 25 5.25 L 28.40625 7.8125 A 1.0001 1.0001 0 0 0 29.59375 7.8125 L 33 5.25 L 36.40625 7.8125 A 1.0001 1.0001 0 0 0 37.59375 7.8125 L 41 5.3125 L 43.40625 7.71875 A 1.0001 1.0001 0 0 0 44.8125 7.6875 L 46 6.46875 L 46 34 L 35 34 L 34 34 L 34 35 L 34 46 L 5 46 C 4.4454545 46 4 45.554545 4 45 L 4 6.4375 L 5.28125 7.71875 A 1.0001 1.0001 0 0 0 6.71875 7.71875 L 9.09375 5.34375 L 12.40625 7.8125 A 1.0001 1.0001 0 0 0 13.59375 7.8125 L 17 5.25 z M 8 12 L 8 13 L 8 17 L 8 18 L 9 18 L 41 18 L 42 18 L 42 17 L 42 13 L 42 12 L 41 12 L 9 12 L 8 12 z M 10 14 L 40 14 L 40 16 L 10 16 L 10 14 z M 8 22 L 8 23 L 8 35 L 8 36 L 9 36 L 22 36 L 23 36 L 23 35 L 23 23 L 23 22 L 22 22 L 9 22 L 8 22 z M 27 22 L 27 24 L 42 24 L 42 22 L 27 22 z M 10 24 L 21 24 L 21 34 L 10 34 L 10 24 z M 13.1875 26 L 12 27.1875 L 12 30.6875 L 13.1875 31.8125 L 17.8125 31.8125 L 19 30.6875 L 19 29.5 L 19 28.3125 L 17.8125 28.3125 L 16.6875 28.3125 L 15.5 29.5 L 17.8125 29.5 L 17.8125 30.6875 L 14.3125 30.6875 L 13.1875 30.6875 L 13.1875 27.1875 L 13.1875 26 z M 13.1875 27.1875 L 14.3125 27.1875 L 14.3125 30.6875 L 15.5 29.5 L 15.5 27.1875 L 19 27.1875 L 17.8125 26 L 14.3125 26 L 13.1875 27.1875 z M 27 26 L 27 28 L 42 28 L 42 26 L 27 26 z M 27 30 L 27 32 L 42 32 L 42 30 L 27 30 z M 27 34 L 27 36 L 33 36 L 33 34 L 27 34 z M 36 36 L 44.5625 36 L 36 44.5625 L 36 36 z M 8 38 L 8 40 L 23 40 L 23 38 L 8 38 z M 27 38 L 27 40 L 33 40 L 33 38 L 27 38 z" fill="#ffffff"/></svg>
