<?xml version="1.0" encoding="utf-8"?>
<!-- https://www.leitstellenspiel.de/images/message_ffffff.svg -->
<svg xmlns="http://www.w3.org/2000/svg" width="50px" height="50px" viewBox="0 0 50 50" fill="#ffffff"><path style="text-indent:0;text-align:start;line-height:normal;text-transform:none;block-progression:tb;-inkscape-font-specification:Bitstream Vera Sans" d="M 0 7 L 0 8 L 0 42 L 0 43 L 1 43 L 49 43 L 50 43 L 50 42 L 50 8 L 50 7 L 49 7 L 1 7 L 0 7 z M 2 9 L 48 9 L 48 11.5 C 47.610571 11.839645 30.075171 27.136596 28.4375 28.5625 L 28.34375 28.65625 C 27.046605 29.785519 25.717322 30 25 30 C 24.283393 30 22.953586 29.785685 21.65625 28.65625 C 21.283246 28.33152 18.614011 26.024758 16.6875 24.34375 C 10.974278 19.358586 2.2938436 11.756469 2 11.5 L 2 9 z M 2 14.15625 C 3.7342038 15.669867 9.8879184 21.023974 15.125 25.59375 L 2 35.96875 L 2 14.15625 z M 48 14.15625 L 48 35.96875 L 34.875 25.59375 C 40.112082 21.023974 46.265796 15.669867 48 14.15625 z M 16.65625 26.9375 C 17.871596 27.997854 20.064953 29.913535 20.34375 30.15625 L 20.375 30.1875 C 22.064656 31.641205 23.862965 32 25 32 C 26.144678 32 27.955395 31.636981 29.65625 30.15625 C 29.936388 29.912367 32.150374 28.005953 33.375 26.9375 L 48 38.5 L 48 41 L 2 41 L 2 38.5 L 16.65625 26.9375 z" color="#000" overflow="visible" enable-background="accumulate" font-family="Bitstream Vera Sans" fill="#ffffff"/></svg>
